<mxfile host="app.diagrams.net" modified="2024-05-20T12:38:46.773Z" agent="Mozilla/5.0 (Windows NT 10.0; Win64; x64) AppleWebKit/537.36 (KHTML, like Gecko) Chrome/125.0.0.0 Safari/537.36" etag="kwCBqUsqtqEl5UiFBXs2" version="24.4.4" type="github">
  <diagram name="Page-1" id="UvkB4t-pwY2h5yAGBkfL">
    <mxGraphModel dx="1392" dy="927" grid="1" gridSize="10" guides="1" tooltips="1" connect="1" arrows="1" fold="1" page="1" pageScale="1" pageWidth="827" pageHeight="1169" math="0" shadow="0">
      <root>
        <mxCell id="0" />
        <mxCell id="1" parent="0" />
        <mxCell id="3YMMkIbWI-LEdYJfHBuM-1" style="edgeStyle=orthogonalEdgeStyle;rounded=0;orthogonalLoop=1;jettySize=auto;html=1;entryX=0.5;entryY=0;entryDx=0;entryDy=0;" parent="1" source="3YMMkIbWI-LEdYJfHBuM-4" target="3YMMkIbWI-LEdYJfHBuM-87" edge="1">
          <mxGeometry relative="1" as="geometry" />
        </mxCell>
        <mxCell id="3YMMkIbWI-LEdYJfHBuM-2" style="edgeStyle=orthogonalEdgeStyle;rounded=0;orthogonalLoop=1;jettySize=auto;html=1;entryX=1;entryY=0.5;entryDx=0;entryDy=0;exitX=0;exitY=0.25;exitDx=0;exitDy=0;" parent="1" source="3YMMkIbWI-LEdYJfHBuM-4" target="3YMMkIbWI-LEdYJfHBuM-89" edge="1">
          <mxGeometry relative="1" as="geometry" />
        </mxCell>
        <mxCell id="3YMMkIbWI-LEdYJfHBuM-3" style="edgeStyle=orthogonalEdgeStyle;rounded=0;orthogonalLoop=1;jettySize=auto;html=1;" parent="1" source="3YMMkIbWI-LEdYJfHBuM-4" edge="1">
          <mxGeometry relative="1" as="geometry">
            <mxPoint x="2040" y="1550" as="targetPoint" />
            <Array as="points">
              <mxPoint x="2140" y="1390" />
              <mxPoint x="2140" y="1550" />
            </Array>
          </mxGeometry>
        </mxCell>
        <mxCell id="3YMMkIbWI-LEdYJfHBuM-4" value="&lt;b&gt;admin&lt;/b&gt;" style="rounded=1;arcSize=10;whiteSpace=wrap;html=1;align=center;fillColor=#FF66B3;" parent="1" vertex="1">
          <mxGeometry x="2150" y="1370" width="100" height="40" as="geometry" />
        </mxCell>
        <mxCell id="3YMMkIbWI-LEdYJfHBuM-5" style="edgeStyle=orthogonalEdgeStyle;rounded=0;orthogonalLoop=1;jettySize=auto;html=1;exitX=0.75;exitY=1;exitDx=0;exitDy=0;entryX=0;entryY=0.5;entryDx=0;entryDy=0;" parent="1" source="3YMMkIbWI-LEdYJfHBuM-7" target="3YMMkIbWI-LEdYJfHBuM-85" edge="1">
          <mxGeometry relative="1" as="geometry">
            <Array as="points">
              <mxPoint x="1525" y="1500" />
              <mxPoint x="1590" y="1500" />
              <mxPoint x="1590" y="1750" />
            </Array>
          </mxGeometry>
        </mxCell>
        <mxCell id="3YMMkIbWI-LEdYJfHBuM-6" style="edgeStyle=orthogonalEdgeStyle;rounded=0;orthogonalLoop=1;jettySize=auto;html=1;entryX=0;entryY=0.5;entryDx=0;entryDy=0;" parent="1" source="3YMMkIbWI-LEdYJfHBuM-7" target="3YMMkIbWI-LEdYJfHBuM-83" edge="1">
          <mxGeometry relative="1" as="geometry" />
        </mxCell>
        <mxCell id="3YMMkIbWI-LEdYJfHBuM-7" value="&lt;b&gt;users&lt;/b&gt;" style="rounded=1;arcSize=10;whiteSpace=wrap;html=1;align=center;fillColor=#FF66B3;" parent="1" vertex="1">
          <mxGeometry x="1450" y="1430" width="100" height="40" as="geometry" />
        </mxCell>
        <mxCell id="3YMMkIbWI-LEdYJfHBuM-8" value="&lt;b&gt;after_login_FIR&lt;/b&gt;" style="rounded=1;arcSize=10;whiteSpace=wrap;html=1;align=center;fillColor=#FF66B3;" parent="1" vertex="1">
          <mxGeometry x="1910" y="1271" width="100" height="40" as="geometry" />
        </mxCell>
        <mxCell id="3YMMkIbWI-LEdYJfHBuM-9" value="&lt;b&gt;quick_FIR&lt;/b&gt;" style="rounded=1;arcSize=10;whiteSpace=wrap;html=1;align=center;fillColor=#FF6666;" parent="1" vertex="1">
          <mxGeometry x="1942" y="1730" width="100" height="40" as="geometry" />
        </mxCell>
        <mxCell id="3YMMkIbWI-LEdYJfHBuM-10" value="&lt;u style=&quot;&quot;&gt;user_id&lt;/u&gt;" style="ellipse;whiteSpace=wrap;html=1;align=center;fillColor=#99FFFF;" parent="1" vertex="1">
          <mxGeometry x="1370" y="1300" width="100" height="40" as="geometry" />
        </mxCell>
        <mxCell id="3YMMkIbWI-LEdYJfHBuM-11" value="password" style="ellipse;whiteSpace=wrap;html=1;align=center;fillColor=#99FFFF;" parent="1" vertex="1">
          <mxGeometry x="1460" y="1560" width="100" height="40" as="geometry" />
        </mxCell>
        <mxCell id="3YMMkIbWI-LEdYJfHBuM-12" value="phone" style="ellipse;whiteSpace=wrap;html=1;align=center;fillColor=#99FFFF;" parent="1" vertex="1">
          <mxGeometry x="1540" y="1300" width="100" height="40" as="geometry" />
        </mxCell>
        <mxCell id="3YMMkIbWI-LEdYJfHBuM-13" value="&lt;u style=&quot;&quot;&gt;email&lt;/u&gt;" style="ellipse;whiteSpace=wrap;html=1;align=center;fillColor=#99FFFF;" parent="1" vertex="1">
          <mxGeometry x="1450" y="1340" width="100" height="40" as="geometry" />
        </mxCell>
        <mxCell id="3YMMkIbWI-LEdYJfHBuM-14" value="dob" style="ellipse;whiteSpace=wrap;html=1;align=center;fillColor=#99FFFF;" parent="1" vertex="1">
          <mxGeometry x="1280" y="1490" width="100" height="40" as="geometry" />
        </mxCell>
        <mxCell id="3YMMkIbWI-LEdYJfHBuM-15" value="name" style="ellipse;whiteSpace=wrap;html=1;align=center;fillColor=#99FFFF;" parent="1" vertex="1">
          <mxGeometry x="1320" y="1370" width="100" height="40" as="geometry" />
        </mxCell>
        <mxCell id="3YMMkIbWI-LEdYJfHBuM-16" value="&lt;u&gt;fir_id&lt;/u&gt;" style="ellipse;whiteSpace=wrap;html=1;align=center;fillColor=#99FFFF;" parent="1" vertex="1">
          <mxGeometry x="1779" y="1680" width="100" height="40" as="geometry" />
        </mxCell>
        <mxCell id="3YMMkIbWI-LEdYJfHBuM-17" value="description" style="ellipse;whiteSpace=wrap;html=1;align=center;fillColor=#99FFFF;" parent="1" vertex="1">
          <mxGeometry x="2092.5" y="1810" width="100" height="40" as="geometry" />
        </mxCell>
        <mxCell id="3YMMkIbWI-LEdYJfHBuM-18" value="category" style="ellipse;whiteSpace=wrap;html=1;align=center;fillColor=#99FFFF;" parent="1" vertex="1">
          <mxGeometry x="2112.5" y="1754" width="100" height="40" as="geometry" />
        </mxCell>
        <mxCell id="3YMMkIbWI-LEdYJfHBuM-19" value="name" style="ellipse;whiteSpace=wrap;html=1;align=center;fillColor=#99FFFF;" parent="1" vertex="1">
          <mxGeometry x="1931" y="1610" width="100" height="40" as="geometry" />
        </mxCell>
        <mxCell id="3YMMkIbWI-LEdYJfHBuM-20" value="emergency_contact" style="ellipse;whiteSpace=wrap;html=1;align=center;fillColor=#99FFFF;" parent="1" vertex="1">
          <mxGeometry x="2030" y="1630" width="120" height="40" as="geometry" />
        </mxCell>
        <mxCell id="3YMMkIbWI-LEdYJfHBuM-21" value="name" style="ellipse;whiteSpace=wrap;html=1;align=center;fillColor=#99FFFF;" parent="1" vertex="1">
          <mxGeometry x="1790" y="1290" width="50" height="40" as="geometry" />
        </mxCell>
        <mxCell id="3YMMkIbWI-LEdYJfHBuM-22" value="description" style="ellipse;whiteSpace=wrap;html=1;align=center;fillColor=#99FFFF;" parent="1" vertex="1">
          <mxGeometry x="2088.5" y="1260" width="77" height="40" as="geometry" />
        </mxCell>
        <mxCell id="3YMMkIbWI-LEdYJfHBuM-23" value="&lt;u&gt;admin_id&lt;/u&gt;" style="ellipse;whiteSpace=wrap;html=1;align=center;fillColor=#99FFFF;" parent="1" vertex="1">
          <mxGeometry x="2340" y="1400" width="100" height="40" as="geometry" />
        </mxCell>
        <mxCell id="3YMMkIbWI-LEdYJfHBuM-24" value="admin_email" style="ellipse;whiteSpace=wrap;html=1;align=center;fillColor=#99FFFF;" parent="1" vertex="1">
          <mxGeometry x="2330" y="1300" width="100" height="40" as="geometry" />
        </mxCell>
        <mxCell id="3YMMkIbWI-LEdYJfHBuM-25" value="admin_name" style="ellipse;whiteSpace=wrap;html=1;align=center;fillColor=#99FFFF;" parent="1" vertex="1">
          <mxGeometry x="2340" y="1350" width="100" height="40" as="geometry" />
        </mxCell>
        <mxCell id="3YMMkIbWI-LEdYJfHBuM-26" value="landmark&amp;nbsp;" style="ellipse;whiteSpace=wrap;html=1;align=center;fillColor=#99FFFF;" parent="1" vertex="1">
          <mxGeometry x="1825" y="1060" width="82" height="40" as="geometry" />
        </mxCell>
        <mxCell id="3YMMkIbWI-LEdYJfHBuM-27" value="emergency_contact" style="ellipse;whiteSpace=wrap;html=1;align=center;fillColor=#99FFFF;" parent="1" vertex="1">
          <mxGeometry x="1791.5" y="1335" width="117" height="40" as="geometry" />
        </mxCell>
        <mxCell id="3YMMkIbWI-LEdYJfHBuM-28" value="category" style="ellipse;whiteSpace=wrap;html=1;align=center;fillColor=#99FFFF;" parent="1" vertex="1">
          <mxGeometry x="2031" y="1300" width="69" height="40" as="geometry" />
        </mxCell>
        <mxCell id="3YMMkIbWI-LEdYJfHBuM-29" value="FIR_status" style="ellipse;whiteSpace=wrap;html=1;align=center;fillColor=#99FFFF;" parent="1" vertex="1">
          <mxGeometry x="1961" y="1080" width="70" height="31" as="geometry" />
        </mxCell>
        <mxCell id="3YMMkIbWI-LEdYJfHBuM-30" value="document_details" style="ellipse;whiteSpace=wrap;html=1;align=center;fillColor=#99FFFF;" parent="1" vertex="1">
          <mxGeometry x="1370" y="1610" width="120" height="40" as="geometry" />
        </mxCell>
        <mxCell id="3YMMkIbWI-LEdYJfHBuM-31" value="document_type" style="ellipse;whiteSpace=wrap;html=1;align=center;fillColor=#99FFFF;" parent="1" vertex="1">
          <mxGeometry x="1320" y="1560" width="100" height="40" as="geometry" />
        </mxCell>
        <mxCell id="3YMMkIbWI-LEdYJfHBuM-32" value="address" style="ellipse;whiteSpace=wrap;html=1;align=center;fillColor=#99FFFF;" parent="1" vertex="1">
          <mxGeometry x="1280" y="1430" width="100" height="40" as="geometry" />
        </mxCell>
        <mxCell id="3YMMkIbWI-LEdYJfHBuM-33" value="" style="endArrow=none;html=1;rounded=0;exitX=0.068;exitY=-0.062;exitDx=0;exitDy=0;exitPerimeter=0;entryX=0.437;entryY=0.987;entryDx=0;entryDy=0;entryPerimeter=0;" parent="1" source="3YMMkIbWI-LEdYJfHBuM-7" target="3YMMkIbWI-LEdYJfHBuM-10" edge="1">
          <mxGeometry width="50" height="50" relative="1" as="geometry">
            <mxPoint x="1440" y="1460" as="sourcePoint" />
            <mxPoint x="1490" y="1410" as="targetPoint" />
          </mxGeometry>
        </mxCell>
        <mxCell id="3YMMkIbWI-LEdYJfHBuM-34" value="" style="endArrow=none;html=1;rounded=0;entryX=0.366;entryY=0.989;entryDx=0;entryDy=0;entryPerimeter=0;exitX=0.433;exitY=-0.024;exitDx=0;exitDy=0;exitPerimeter=0;" parent="1" source="3YMMkIbWI-LEdYJfHBuM-7" target="3YMMkIbWI-LEdYJfHBuM-13" edge="1">
          <mxGeometry width="50" height="50" relative="1" as="geometry">
            <mxPoint x="1540" y="1470" as="sourcePoint" />
            <mxPoint x="1500" y="1420" as="targetPoint" />
          </mxGeometry>
        </mxCell>
        <mxCell id="3YMMkIbWI-LEdYJfHBuM-35" value="" style="endArrow=none;html=1;rounded=0;exitX=0.652;exitY=-0.062;exitDx=0;exitDy=0;entryX=0.346;entryY=0.976;entryDx=0;entryDy=0;entryPerimeter=0;exitPerimeter=0;" parent="1" source="3YMMkIbWI-LEdYJfHBuM-7" target="3YMMkIbWI-LEdYJfHBuM-12" edge="1">
          <mxGeometry width="50" height="50" relative="1" as="geometry">
            <mxPoint x="1680" y="1490" as="sourcePoint" />
            <mxPoint x="1730" y="1440" as="targetPoint" />
          </mxGeometry>
        </mxCell>
        <mxCell id="3YMMkIbWI-LEdYJfHBuM-36" value="" style="endArrow=none;html=1;rounded=0;exitX=0.015;exitY=0.153;exitDx=0;exitDy=0;exitPerimeter=0;" parent="1" source="3YMMkIbWI-LEdYJfHBuM-7" target="3YMMkIbWI-LEdYJfHBuM-15" edge="1">
          <mxGeometry width="50" height="50" relative="1" as="geometry">
            <mxPoint x="1680" y="1490" as="sourcePoint" />
            <mxPoint x="1730" y="1440" as="targetPoint" />
          </mxGeometry>
        </mxCell>
        <mxCell id="3YMMkIbWI-LEdYJfHBuM-37" value="" style="endArrow=none;html=1;rounded=0;exitX=0.119;exitY=1.034;exitDx=0;exitDy=0;exitPerimeter=0;entryX=0.762;entryY=-0.044;entryDx=0;entryDy=0;entryPerimeter=0;" parent="1" source="3YMMkIbWI-LEdYJfHBuM-7" target="3YMMkIbWI-LEdYJfHBuM-31" edge="1">
          <mxGeometry width="50" height="50" relative="1" as="geometry">
            <mxPoint x="1462" y="1496" as="sourcePoint" />
            <mxPoint x="1396" y="1419" as="targetPoint" />
          </mxGeometry>
        </mxCell>
        <mxCell id="3YMMkIbWI-LEdYJfHBuM-38" value="" style="endArrow=none;html=1;rounded=0;exitX=-0.025;exitY=0.902;exitDx=0;exitDy=0;exitPerimeter=0;entryX=1;entryY=0.5;entryDx=0;entryDy=0;" parent="1" source="3YMMkIbWI-LEdYJfHBuM-7" target="3YMMkIbWI-LEdYJfHBuM-14" edge="1">
          <mxGeometry width="50" height="50" relative="1" as="geometry">
            <mxPoint x="1472" y="1506" as="sourcePoint" />
            <mxPoint x="1406" y="1429" as="targetPoint" />
          </mxGeometry>
        </mxCell>
        <mxCell id="3YMMkIbWI-LEdYJfHBuM-39" value="" style="endArrow=none;html=1;rounded=0;exitX=-0.025;exitY=0.661;exitDx=0;exitDy=0;exitPerimeter=0;entryX=1.014;entryY=0.654;entryDx=0;entryDy=0;entryPerimeter=0;" parent="1" source="3YMMkIbWI-LEdYJfHBuM-7" target="3YMMkIbWI-LEdYJfHBuM-32" edge="1">
          <mxGeometry width="50" height="50" relative="1" as="geometry">
            <mxPoint x="1482" y="1516" as="sourcePoint" />
            <mxPoint x="1416" y="1439" as="targetPoint" />
          </mxGeometry>
        </mxCell>
        <mxCell id="3YMMkIbWI-LEdYJfHBuM-40" value="" style="endArrow=none;html=1;rounded=0;entryX=0.317;entryY=1.03;entryDx=0;entryDy=0;exitX=0.459;exitY=-0.01;exitDx=0;exitDy=0;exitPerimeter=0;entryPerimeter=0;" parent="1" source="3YMMkIbWI-LEdYJfHBuM-30" target="3YMMkIbWI-LEdYJfHBuM-7" edge="1">
          <mxGeometry width="50" height="50" relative="1" as="geometry">
            <mxPoint x="1680" y="1490" as="sourcePoint" />
            <mxPoint x="1730" y="1440" as="targetPoint" />
          </mxGeometry>
        </mxCell>
        <mxCell id="3YMMkIbWI-LEdYJfHBuM-41" value="" style="endArrow=none;html=1;rounded=0;entryX=0.5;entryY=1;entryDx=0;entryDy=0;exitX=0.334;exitY=-0.023;exitDx=0;exitDy=0;exitPerimeter=0;" parent="1" source="3YMMkIbWI-LEdYJfHBuM-11" target="3YMMkIbWI-LEdYJfHBuM-7" edge="1">
          <mxGeometry width="50" height="50" relative="1" as="geometry">
            <mxPoint x="1680" y="1490" as="sourcePoint" />
            <mxPoint x="1730" y="1440" as="targetPoint" />
          </mxGeometry>
        </mxCell>
        <mxCell id="3YMMkIbWI-LEdYJfHBuM-42" value="registration_date" style="ellipse;whiteSpace=wrap;html=1;align=center;fillColor=#99FFFF;" parent="1" vertex="1">
          <mxGeometry x="1598" y="1360" width="116" height="40" as="geometry" />
        </mxCell>
        <mxCell id="3YMMkIbWI-LEdYJfHBuM-43" value="" style="endArrow=none;html=1;rounded=0;exitX=0.876;exitY=-0.036;exitDx=0;exitDy=0;entryX=-0.03;entryY=0.668;entryDx=0;entryDy=0;entryPerimeter=0;exitPerimeter=0;" parent="1" source="3YMMkIbWI-LEdYJfHBuM-7" target="3YMMkIbWI-LEdYJfHBuM-42" edge="1">
          <mxGeometry width="50" height="50" relative="1" as="geometry">
            <mxPoint x="1535" y="1458" as="sourcePoint" />
            <mxPoint x="1645" y="1399" as="targetPoint" />
          </mxGeometry>
        </mxCell>
        <mxCell id="3YMMkIbWI-LEdYJfHBuM-44" value="FIR_STATUS" style="ellipse;whiteSpace=wrap;html=1;align=center;fillColor=#99FFFF;" parent="1" vertex="1">
          <mxGeometry x="1850" y="1640" width="100" height="40" as="geometry" />
        </mxCell>
        <mxCell id="3YMMkIbWI-LEdYJfHBuM-45" value="FIR_REPORT_DATE" style="ellipse;whiteSpace=wrap;html=1;align=center;fillColor=#99FFFF;" parent="1" vertex="1">
          <mxGeometry x="2088.5" y="1680" width="130" height="40" as="geometry" />
        </mxCell>
        <mxCell id="3YMMkIbWI-LEdYJfHBuM-46" value="where_occured_city" style="ellipse;whiteSpace=wrap;html=1;align=center;fillColor=#99FFFF;" parent="1" vertex="1">
          <mxGeometry x="1850" y="1860" width="160" height="40" as="geometry" />
        </mxCell>
        <mxCell id="3YMMkIbWI-LEdYJfHBuM-47" value="when_occured_date" style="ellipse;whiteSpace=wrap;html=1;align=center;fillColor=#99FFFF;" parent="1" vertex="1">
          <mxGeometry x="2055" y="1860" width="140" height="40" as="geometry" />
        </mxCell>
        <mxCell id="3YMMkIbWI-LEdYJfHBuM-48" value="when_occurred_time" style="ellipse;whiteSpace=wrap;html=1;align=center;fillColor=#99FFFF;" parent="1" vertex="1">
          <mxGeometry x="1961" y="1900" width="140" height="40" as="geometry" />
        </mxCell>
        <mxCell id="3YMMkIbWI-LEdYJfHBuM-49" value="" style="endArrow=none;html=1;rounded=0;entryX=0.25;entryY=1;entryDx=0;entryDy=0;" parent="1" source="3YMMkIbWI-LEdYJfHBuM-46" target="3YMMkIbWI-LEdYJfHBuM-9" edge="1">
          <mxGeometry width="50" height="50" relative="1" as="geometry">
            <mxPoint x="1935" y="1830" as="sourcePoint" />
            <mxPoint x="1985" y="1780" as="targetPoint" />
          </mxGeometry>
        </mxCell>
        <mxCell id="3YMMkIbWI-LEdYJfHBuM-50" value="" style="endArrow=none;html=1;rounded=0;entryX=0;entryY=0;entryDx=0;entryDy=0;exitX=0.987;exitY=0.592;exitDx=0;exitDy=0;exitPerimeter=0;" parent="1" source="3YMMkIbWI-LEdYJfHBuM-16" target="3YMMkIbWI-LEdYJfHBuM-9" edge="1">
          <mxGeometry width="50" height="50" relative="1" as="geometry">
            <mxPoint x="1880" y="1710" as="sourcePoint" />
            <mxPoint x="1985" y="1780" as="targetPoint" />
          </mxGeometry>
        </mxCell>
        <mxCell id="3YMMkIbWI-LEdYJfHBuM-51" value="" style="endArrow=none;html=1;rounded=0;entryX=0.5;entryY=0;entryDx=0;entryDy=0;exitX=0.32;exitY=1.001;exitDx=0;exitDy=0;exitPerimeter=0;" parent="1" source="3YMMkIbWI-LEdYJfHBuM-9" target="3YMMkIbWI-LEdYJfHBuM-48" edge="1">
          <mxGeometry width="50" height="50" relative="1" as="geometry">
            <mxPoint x="1935" y="1830" as="sourcePoint" />
            <mxPoint x="1985" y="1780" as="targetPoint" />
          </mxGeometry>
        </mxCell>
        <mxCell id="3YMMkIbWI-LEdYJfHBuM-52" value="" style="endArrow=none;html=1;rounded=0;exitX=0;exitY=0.5;exitDx=0;exitDy=0;entryX=1;entryY=0.5;entryDx=0;entryDy=0;entryPerimeter=0;" parent="1" source="3YMMkIbWI-LEdYJfHBuM-18" target="3YMMkIbWI-LEdYJfHBuM-9" edge="1">
          <mxGeometry width="50" height="50" relative="1" as="geometry">
            <mxPoint x="1935" y="1830" as="sourcePoint" />
            <mxPoint x="1985" y="1780" as="targetPoint" />
          </mxGeometry>
        </mxCell>
        <mxCell id="3YMMkIbWI-LEdYJfHBuM-53" value="" style="endArrow=none;html=1;rounded=0;entryX=0;entryY=0;entryDx=0;entryDy=0;exitX=0.5;exitY=1;exitDx=0;exitDy=0;" parent="1" source="3YMMkIbWI-LEdYJfHBuM-9" target="3YMMkIbWI-LEdYJfHBuM-47" edge="1">
          <mxGeometry width="50" height="50" relative="1" as="geometry">
            <mxPoint x="1935" y="1830" as="sourcePoint" />
            <mxPoint x="1985" y="1780" as="targetPoint" />
          </mxGeometry>
        </mxCell>
        <mxCell id="3YMMkIbWI-LEdYJfHBuM-54" value="" style="endArrow=none;html=1;rounded=0;entryX=0.013;entryY=0.335;entryDx=0;entryDy=0;entryPerimeter=0;exitX=0.88;exitY=1;exitDx=0;exitDy=0;exitPerimeter=0;" parent="1" source="3YMMkIbWI-LEdYJfHBuM-9" target="3YMMkIbWI-LEdYJfHBuM-17" edge="1">
          <mxGeometry width="50" height="50" relative="1" as="geometry">
            <mxPoint x="1935" y="1830" as="sourcePoint" />
            <mxPoint x="1985" y="1780" as="targetPoint" />
          </mxGeometry>
        </mxCell>
        <mxCell id="3YMMkIbWI-LEdYJfHBuM-55" value="" style="endArrow=none;html=1;rounded=0;entryX=0.024;entryY=0.659;entryDx=0;entryDy=0;entryPerimeter=0;exitX=0.831;exitY=-0.054;exitDx=0;exitDy=0;exitPerimeter=0;" parent="1" source="3YMMkIbWI-LEdYJfHBuM-9" target="3YMMkIbWI-LEdYJfHBuM-45" edge="1">
          <mxGeometry width="50" height="50" relative="1" as="geometry">
            <mxPoint x="1935" y="1830" as="sourcePoint" />
            <mxPoint x="2108.16" y="1730.0399999999997" as="targetPoint" />
          </mxGeometry>
        </mxCell>
        <mxCell id="3YMMkIbWI-LEdYJfHBuM-56" value="" style="endArrow=none;html=1;rounded=0;exitX=0.43;exitY=1.001;exitDx=0;exitDy=0;exitPerimeter=0;entryX=0.5;entryY=0;entryDx=0;entryDy=0;" parent="1" source="3YMMkIbWI-LEdYJfHBuM-20" target="3YMMkIbWI-LEdYJfHBuM-9" edge="1">
          <mxGeometry width="50" height="50" relative="1" as="geometry">
            <mxPoint x="1935" y="1830" as="sourcePoint" />
            <mxPoint x="1985" y="1760" as="targetPoint" />
          </mxGeometry>
        </mxCell>
        <mxCell id="3YMMkIbWI-LEdYJfHBuM-57" value="" style="endArrow=none;html=1;rounded=0;exitX=0.768;exitY=0.881;exitDx=0;exitDy=0;exitPerimeter=0;entryX=0.25;entryY=0;entryDx=0;entryDy=0;" parent="1" source="3YMMkIbWI-LEdYJfHBuM-19" target="3YMMkIbWI-LEdYJfHBuM-9" edge="1">
          <mxGeometry width="50" height="50" relative="1" as="geometry">
            <mxPoint x="1935" y="1830" as="sourcePoint" />
            <mxPoint x="1985" y="1780" as="targetPoint" />
          </mxGeometry>
        </mxCell>
        <mxCell id="3YMMkIbWI-LEdYJfHBuM-58" value="" style="endArrow=none;html=1;rounded=0;entryX=1;entryY=1;entryDx=0;entryDy=0;exitX=0.126;exitY=-0.025;exitDx=0;exitDy=0;exitPerimeter=0;" parent="1" source="3YMMkIbWI-LEdYJfHBuM-9" target="3YMMkIbWI-LEdYJfHBuM-44" edge="1">
          <mxGeometry width="50" height="50" relative="1" as="geometry">
            <mxPoint x="1935" y="1830" as="sourcePoint" />
            <mxPoint x="1985" y="1780" as="targetPoint" />
          </mxGeometry>
        </mxCell>
        <mxCell id="3YMMkIbWI-LEdYJfHBuM-59" value="when_occurred_time" style="ellipse;whiteSpace=wrap;html=1;align=center;fillColor=#99FFFF;" parent="1" vertex="1">
          <mxGeometry x="1893" y="1030" width="127" height="40" as="geometry" />
        </mxCell>
        <mxCell id="3YMMkIbWI-LEdYJfHBuM-60" value="when_occured_date" style="ellipse;whiteSpace=wrap;html=1;align=center;fillColor=#99FFFF;" parent="1" vertex="1">
          <mxGeometry x="2092.5" y="1210" width="140" height="40" as="geometry" />
        </mxCell>
        <mxCell id="3YMMkIbWI-LEdYJfHBuM-61" value="FIR_REPORT_DATE" style="ellipse;whiteSpace=wrap;html=1;align=center;fillColor=#99FFFF;" parent="1" vertex="1">
          <mxGeometry x="2088.5" y="1160" width="148" height="40" as="geometry" />
        </mxCell>
        <mxCell id="3YMMkIbWI-LEdYJfHBuM-62" value="&lt;u&gt;fir_id&lt;/u&gt;" style="ellipse;whiteSpace=wrap;html=1;align=center;fillColor=#99FFFF;" parent="1" vertex="1">
          <mxGeometry x="1775" y="1240" width="59" height="40" as="geometry" />
        </mxCell>
        <mxCell id="3YMMkIbWI-LEdYJfHBuM-63" value="&lt;u&gt;user_email&lt;/u&gt;" style="ellipse;whiteSpace=wrap;html=1;align=center;fillColor=#99FFFF;" parent="1" vertex="1">
          <mxGeometry x="2038" y="1100" width="67" height="50" as="geometry" />
        </mxCell>
        <mxCell id="3YMMkIbWI-LEdYJfHBuM-64" value="" style="endArrow=none;html=1;rounded=0;entryX=0;entryY=0.5;entryDx=0;entryDy=0;" parent="1" source="3YMMkIbWI-LEdYJfHBuM-8" target="3YMMkIbWI-LEdYJfHBuM-60" edge="1">
          <mxGeometry width="50" height="50" relative="1" as="geometry">
            <mxPoint x="2106.5" y="1311" as="sourcePoint" />
            <mxPoint x="2156.5" y="1261" as="targetPoint" />
          </mxGeometry>
        </mxCell>
        <mxCell id="3YMMkIbWI-LEdYJfHBuM-65" value="" style="endArrow=none;html=1;rounded=0;entryX=0;entryY=0.5;entryDx=0;entryDy=0;exitX=0.865;exitY=-0.025;exitDx=0;exitDy=0;exitPerimeter=0;" parent="1" source="3YMMkIbWI-LEdYJfHBuM-8" target="3YMMkIbWI-LEdYJfHBuM-61" edge="1">
          <mxGeometry width="50" height="50" relative="1" as="geometry">
            <mxPoint x="2106.5" y="1311" as="sourcePoint" />
            <mxPoint x="2156.5" y="1261" as="targetPoint" />
          </mxGeometry>
        </mxCell>
        <mxCell id="3YMMkIbWI-LEdYJfHBuM-66" value="" style="endArrow=none;html=1;rounded=0;entryX=0.5;entryY=1;entryDx=0;entryDy=0;exitX=0.71;exitY=-0.02;exitDx=0;exitDy=0;exitPerimeter=0;" parent="1" source="3YMMkIbWI-LEdYJfHBuM-8" target="3YMMkIbWI-LEdYJfHBuM-29" edge="1">
          <mxGeometry width="50" height="50" relative="1" as="geometry">
            <mxPoint x="2106.5" y="1311" as="sourcePoint" />
            <mxPoint x="2156.5" y="1261" as="targetPoint" />
          </mxGeometry>
        </mxCell>
        <mxCell id="3YMMkIbWI-LEdYJfHBuM-67" value="" style="endArrow=none;html=1;rounded=0;entryX=0.457;entryY=0.977;entryDx=0;entryDy=0;entryPerimeter=0;exitX=0.5;exitY=0;exitDx=0;exitDy=0;" parent="1" source="3YMMkIbWI-LEdYJfHBuM-8" target="3YMMkIbWI-LEdYJfHBuM-59" edge="1">
          <mxGeometry width="50" height="50" relative="1" as="geometry">
            <mxPoint x="2106.5" y="1311" as="sourcePoint" />
            <mxPoint x="2156.5" y="1261" as="targetPoint" />
          </mxGeometry>
        </mxCell>
        <mxCell id="3YMMkIbWI-LEdYJfHBuM-68" value="" style="endArrow=none;html=1;rounded=0;entryX=1;entryY=1;entryDx=0;entryDy=0;exitX=0.402;exitY=-0.004;exitDx=0;exitDy=0;exitPerimeter=0;" parent="1" source="3YMMkIbWI-LEdYJfHBuM-8" target="3YMMkIbWI-LEdYJfHBuM-26" edge="1">
          <mxGeometry width="50" height="50" relative="1" as="geometry">
            <mxPoint x="1950" y="1270" as="sourcePoint" />
            <mxPoint x="2156.5" y="1261" as="targetPoint" />
          </mxGeometry>
        </mxCell>
        <mxCell id="3YMMkIbWI-LEdYJfHBuM-69" value="" style="endArrow=none;html=1;rounded=0;entryX=1;entryY=0.5;entryDx=0;entryDy=0;exitX=0;exitY=0.25;exitDx=0;exitDy=0;" parent="1" source="3YMMkIbWI-LEdYJfHBuM-8" target="3YMMkIbWI-LEdYJfHBuM-62" edge="1">
          <mxGeometry width="50" height="50" relative="1" as="geometry">
            <mxPoint x="2106.5" y="1311" as="sourcePoint" />
            <mxPoint x="2156.5" y="1261" as="targetPoint" />
          </mxGeometry>
        </mxCell>
        <mxCell id="3YMMkIbWI-LEdYJfHBuM-70" value="" style="endArrow=none;html=1;rounded=0;entryX=0.99;entryY=0.393;entryDx=0;entryDy=0;entryPerimeter=0;exitX=0;exitY=0.5;exitDx=0;exitDy=0;" parent="1" source="3YMMkIbWI-LEdYJfHBuM-8" target="3YMMkIbWI-LEdYJfHBuM-21" edge="1">
          <mxGeometry width="50" height="50" relative="1" as="geometry">
            <mxPoint x="2106.5" y="1311" as="sourcePoint" />
            <mxPoint x="2156.5" y="1261" as="targetPoint" />
          </mxGeometry>
        </mxCell>
        <mxCell id="3YMMkIbWI-LEdYJfHBuM-71" value="" style="endArrow=none;html=1;rounded=0;entryX=1;entryY=0;entryDx=0;entryDy=0;exitX=0;exitY=0.75;exitDx=0;exitDy=0;" parent="1" source="3YMMkIbWI-LEdYJfHBuM-8" target="3YMMkIbWI-LEdYJfHBuM-27" edge="1">
          <mxGeometry width="50" height="50" relative="1" as="geometry">
            <mxPoint x="2106.5" y="1311" as="sourcePoint" />
            <mxPoint x="2156.5" y="1261" as="targetPoint" />
          </mxGeometry>
        </mxCell>
        <mxCell id="3YMMkIbWI-LEdYJfHBuM-72" value="" style="endArrow=none;html=1;rounded=0;entryX=0.5;entryY=1;entryDx=0;entryDy=0;exitX=0.75;exitY=0;exitDx=0;exitDy=0;" parent="1" source="3YMMkIbWI-LEdYJfHBuM-8" target="3YMMkIbWI-LEdYJfHBuM-63" edge="1">
          <mxGeometry width="50" height="50" relative="1" as="geometry">
            <mxPoint x="2106.5" y="1311" as="sourcePoint" />
            <mxPoint x="2156.5" y="1261" as="targetPoint" />
          </mxGeometry>
        </mxCell>
        <mxCell id="3YMMkIbWI-LEdYJfHBuM-73" value="" style="endArrow=none;html=1;rounded=0;entryX=0.025;entryY=0.351;entryDx=0;entryDy=0;exitX=0.999;exitY=0.675;exitDx=0;exitDy=0;exitPerimeter=0;entryPerimeter=0;" parent="1" source="3YMMkIbWI-LEdYJfHBuM-8" target="3YMMkIbWI-LEdYJfHBuM-28" edge="1">
          <mxGeometry width="50" height="50" relative="1" as="geometry">
            <mxPoint x="2106.5" y="1311" as="sourcePoint" />
            <mxPoint x="2156.5" y="1261" as="targetPoint" />
          </mxGeometry>
        </mxCell>
        <mxCell id="3YMMkIbWI-LEdYJfHBuM-74" value="" style="endArrow=none;html=1;rounded=0;entryX=0;entryY=0.5;entryDx=0;entryDy=0;exitX=1;exitY=0.25;exitDx=0;exitDy=0;" parent="1" source="3YMMkIbWI-LEdYJfHBuM-8" target="3YMMkIbWI-LEdYJfHBuM-22" edge="1">
          <mxGeometry width="50" height="50" relative="1" as="geometry">
            <mxPoint x="2106.5" y="1311" as="sourcePoint" />
            <mxPoint x="2156.5" y="1261" as="targetPoint" />
          </mxGeometry>
        </mxCell>
        <mxCell id="3YMMkIbWI-LEdYJfHBuM-75" value="admin_password" style="ellipse;whiteSpace=wrap;html=1;align=center;fillColor=#99FFFF;" parent="1" vertex="1">
          <mxGeometry x="2300" y="1250" width="120" height="40" as="geometry" />
        </mxCell>
        <mxCell id="3YMMkIbWI-LEdYJfHBuM-76" value="" style="endArrow=none;html=1;rounded=0;entryX=1;entryY=0.75;entryDx=0;entryDy=0;exitX=0;exitY=0.375;exitDx=0;exitDy=0;exitPerimeter=0;" parent="1" source="3YMMkIbWI-LEdYJfHBuM-23" target="3YMMkIbWI-LEdYJfHBuM-4" edge="1">
          <mxGeometry width="50" height="50" relative="1" as="geometry">
            <mxPoint x="2350" y="1450" as="sourcePoint" />
            <mxPoint x="2400" y="1400" as="targetPoint" />
          </mxGeometry>
        </mxCell>
        <mxCell id="3YMMkIbWI-LEdYJfHBuM-77" value="" style="endArrow=none;html=1;rounded=0;entryX=0;entryY=1;entryDx=0;entryDy=0;exitX=0.648;exitY=0.025;exitDx=0;exitDy=0;exitPerimeter=0;" parent="1" source="3YMMkIbWI-LEdYJfHBuM-4" target="3YMMkIbWI-LEdYJfHBuM-75" edge="1">
          <mxGeometry width="50" height="50" relative="1" as="geometry">
            <mxPoint x="2190" y="1360" as="sourcePoint" />
            <mxPoint x="2400" y="1400" as="targetPoint" />
          </mxGeometry>
        </mxCell>
        <mxCell id="3YMMkIbWI-LEdYJfHBuM-78" value="" style="endArrow=none;html=1;rounded=0;entryX=0;entryY=1;entryDx=0;entryDy=0;exitX=0.75;exitY=0;exitDx=0;exitDy=0;" parent="1" source="3YMMkIbWI-LEdYJfHBuM-4" target="3YMMkIbWI-LEdYJfHBuM-24" edge="1">
          <mxGeometry width="50" height="50" relative="1" as="geometry">
            <mxPoint x="2350" y="1450" as="sourcePoint" />
            <mxPoint x="2400" y="1400" as="targetPoint" />
          </mxGeometry>
        </mxCell>
        <mxCell id="3YMMkIbWI-LEdYJfHBuM-79" value="" style="endArrow=none;html=1;rounded=0;exitX=1;exitY=0.5;exitDx=0;exitDy=0;entryX=0;entryY=0.5;entryDx=0;entryDy=0;" parent="1" source="3YMMkIbWI-LEdYJfHBuM-4" target="3YMMkIbWI-LEdYJfHBuM-25" edge="1">
          <mxGeometry width="50" height="50" relative="1" as="geometry">
            <mxPoint x="2350" y="1450" as="sourcePoint" />
            <mxPoint x="2400" y="1400" as="targetPoint" />
          </mxGeometry>
        </mxCell>
        <mxCell id="3YMMkIbWI-LEdYJfHBuM-80" style="edgeStyle=orthogonalEdgeStyle;rounded=0;orthogonalLoop=1;jettySize=auto;html=1;exitX=-0.007;exitY=0.503;exitDx=0;exitDy=0;exitPerimeter=0;entryX=1;entryY=0.75;entryDx=0;entryDy=0;" parent="1" source="3YMMkIbWI-LEdYJfHBuM-81" target="3YMMkIbWI-LEdYJfHBuM-7" edge="1">
          <mxGeometry relative="1" as="geometry">
            <mxPoint x="1899.996" y="1465.7599999999998" as="sourcePoint" />
            <mxPoint x="1560" y="1470" as="targetPoint" />
            <Array as="points" />
          </mxGeometry>
        </mxCell>
        <mxCell id="3YMMkIbWI-LEdYJfHBuM-81" value="Manages" style="shape=rhombus;perimeter=rhombusPerimeter;whiteSpace=wrap;html=1;align=center;fillColor=#4DFFCF;" parent="1" vertex="1">
          <mxGeometry x="1840" y="1520" width="198" height="60" as="geometry" />
        </mxCell>
        <mxCell id="3YMMkIbWI-LEdYJfHBuM-82" style="edgeStyle=orthogonalEdgeStyle;rounded=0;orthogonalLoop=1;jettySize=auto;html=1;entryX=0.25;entryY=1;entryDx=0;entryDy=0;" parent="1" source="3YMMkIbWI-LEdYJfHBuM-83" target="3YMMkIbWI-LEdYJfHBuM-8" edge="1">
          <mxGeometry relative="1" as="geometry" />
        </mxCell>
        <mxCell id="3YMMkIbWI-LEdYJfHBuM-83" value="File&amp;nbsp;&lt;br&gt;Complaint" style="shape=rhombus;perimeter=rhombusPerimeter;whiteSpace=wrap;html=1;align=center;fillColor=#4DFFCF;" parent="1" vertex="1">
          <mxGeometry x="1874" y="1420" width="121" height="60" as="geometry" />
        </mxCell>
        <mxCell id="3YMMkIbWI-LEdYJfHBuM-84" style="edgeStyle=orthogonalEdgeStyle;rounded=0;orthogonalLoop=1;jettySize=auto;html=1;entryX=0;entryY=0.5;entryDx=0;entryDy=0;" parent="1" source="3YMMkIbWI-LEdYJfHBuM-85" target="3YMMkIbWI-LEdYJfHBuM-9" edge="1">
          <mxGeometry relative="1" as="geometry" />
        </mxCell>
        <mxCell id="3YMMkIbWI-LEdYJfHBuM-85" value="File&amp;nbsp;&lt;br&gt;Complaint" style="shape=rhombus;perimeter=rhombusPerimeter;whiteSpace=wrap;html=1;align=center;fillColor=#4DFFCF;" parent="1" vertex="1">
          <mxGeometry x="1630" y="1720" width="120" height="60" as="geometry" />
        </mxCell>
        <mxCell id="3YMMkIbWI-LEdYJfHBuM-86" style="edgeStyle=orthogonalEdgeStyle;rounded=0;orthogonalLoop=1;jettySize=auto;html=1;entryX=1;entryY=0.25;entryDx=0;entryDy=0;" parent="1" source="3YMMkIbWI-LEdYJfHBuM-87" target="3YMMkIbWI-LEdYJfHBuM-9" edge="1">
          <mxGeometry relative="1" as="geometry">
            <Array as="points">
              <mxPoint x="2250" y="1740" />
            </Array>
          </mxGeometry>
        </mxCell>
        <mxCell id="3YMMkIbWI-LEdYJfHBuM-87" value="Manages" style="shape=rhombus;perimeter=rhombusPerimeter;whiteSpace=wrap;html=1;align=center;fillColor=#4DFFCF;" parent="1" vertex="1">
          <mxGeometry x="2190" y="1580" width="120" height="60" as="geometry" />
        </mxCell>
        <mxCell id="3YMMkIbWI-LEdYJfHBuM-88" style="edgeStyle=orthogonalEdgeStyle;rounded=0;orthogonalLoop=1;jettySize=auto;html=1;entryX=0.406;entryY=0.96;entryDx=0;entryDy=0;entryPerimeter=0;exitX=0;exitY=0.5;exitDx=0;exitDy=0;" parent="1" source="3YMMkIbWI-LEdYJfHBuM-89" target="3YMMkIbWI-LEdYJfHBuM-8" edge="1">
          <mxGeometry relative="1" as="geometry">
            <mxPoint x="1950" y="1320.0000000000002" as="targetPoint" />
            <Array as="points">
              <mxPoint x="1951" y="1380" />
            </Array>
          </mxGeometry>
        </mxCell>
        <mxCell id="3YMMkIbWI-LEdYJfHBuM-89" value="Manages" style="shape=rhombus;perimeter=rhombusPerimeter;whiteSpace=wrap;html=1;align=center;fillColor=#4DFFCF;" parent="1" vertex="1">
          <mxGeometry x="1980" y="1350" width="120" height="60" as="geometry" />
        </mxCell>
        <mxCell id="3YMMkIbWI-LEdYJfHBuM-90" value="1" style="text;html=1;strokeColor=none;fillColor=none;align=center;verticalAlign=middle;whiteSpace=wrap;rounded=0;" parent="1" vertex="1">
          <mxGeometry x="1558" y="1440" width="12" height="10" as="geometry" />
        </mxCell>
        <mxCell id="3YMMkIbWI-LEdYJfHBuM-91" value="&lt;b&gt;M&lt;/b&gt;" style="text;html=1;strokeColor=none;fillColor=none;align=center;verticalAlign=middle;whiteSpace=wrap;rounded=0;" parent="1" vertex="1">
          <mxGeometry x="1920" y="1320" width="20" height="20" as="geometry" />
        </mxCell>
        <mxCell id="3YMMkIbWI-LEdYJfHBuM-92" value="&lt;b&gt;M&lt;/b&gt;" style="text;html=1;strokeColor=none;fillColor=none;align=center;verticalAlign=middle;whiteSpace=wrap;rounded=0;" parent="1" vertex="1">
          <mxGeometry x="1530" y="1470" width="20" height="20" as="geometry" />
        </mxCell>
        <mxCell id="3YMMkIbWI-LEdYJfHBuM-93" value="&lt;b&gt;M&lt;/b&gt;" style="text;html=1;strokeColor=none;fillColor=none;align=center;verticalAlign=middle;whiteSpace=wrap;rounded=0;" parent="1" vertex="1">
          <mxGeometry x="1910" y="1733.5" width="20" height="20" as="geometry" />
        </mxCell>
        <mxCell id="3YMMkIbWI-LEdYJfHBuM-94" value="&lt;b&gt;M&lt;/b&gt;" style="text;html=1;strokeColor=none;fillColor=none;align=center;verticalAlign=middle;whiteSpace=wrap;rounded=0;" parent="1" vertex="1">
          <mxGeometry x="2132" y="1370" width="10" height="10" as="geometry" />
        </mxCell>
        <mxCell id="3YMMkIbWI-LEdYJfHBuM-95" value="&lt;b&gt;M&lt;/b&gt;" style="text;html=1;strokeColor=none;fillColor=none;align=center;verticalAlign=middle;whiteSpace=wrap;rounded=0;" parent="1" vertex="1">
          <mxGeometry x="1955" y="1325" width="10" height="10" as="geometry" />
        </mxCell>
        <mxCell id="3YMMkIbWI-LEdYJfHBuM-96" value="&lt;b&gt;M&lt;/b&gt;" style="text;html=1;strokeColor=none;fillColor=none;align=center;verticalAlign=middle;whiteSpace=wrap;rounded=0;" parent="1" vertex="1">
          <mxGeometry x="2122" y="1400" width="10" height="10" as="geometry" />
        </mxCell>
        <mxCell id="3YMMkIbWI-LEdYJfHBuM-97" value="&lt;b&gt;M&lt;/b&gt;" style="text;html=1;strokeColor=none;fillColor=none;align=center;verticalAlign=middle;whiteSpace=wrap;rounded=0;" parent="1" vertex="1">
          <mxGeometry x="1570" y="1460" width="10" height="10" as="geometry" />
        </mxCell>
        <mxCell id="3YMMkIbWI-LEdYJfHBuM-98" value="&lt;b&gt;M&lt;/b&gt;" style="text;html=1;strokeColor=none;fillColor=none;align=center;verticalAlign=middle;whiteSpace=wrap;rounded=0;" parent="1" vertex="1">
          <mxGeometry x="2207" y="1420" width="10" height="10" as="geometry" />
        </mxCell>
        <mxCell id="3YMMkIbWI-LEdYJfHBuM-99" value="&lt;b&gt;M&lt;/b&gt;" style="text;html=1;strokeColor=none;fillColor=none;align=center;verticalAlign=middle;whiteSpace=wrap;rounded=0;" parent="1" vertex="1">
          <mxGeometry x="2060" y="1730" width="8" height="10" as="geometry" />
        </mxCell>
        <mxCell id="53DS2Vafwqu0RIHosfEk-1" value="registration_date" style="ellipse;whiteSpace=wrap;html=1;align=center;fillColor=#99FFFF;" vertex="1" parent="1">
          <mxGeometry x="2330" y="1450" width="100" height="40" as="geometry" />
        </mxCell>
        <mxCell id="53DS2Vafwqu0RIHosfEk-2" value="" style="endArrow=none;html=1;rounded=0;entryX=0.982;entryY=0.999;entryDx=0;entryDy=0;exitX=0;exitY=0;exitDx=0;exitDy=0;entryPerimeter=0;" edge="1" parent="1" source="53DS2Vafwqu0RIHosfEk-1" target="3YMMkIbWI-LEdYJfHBuM-4">
          <mxGeometry width="50" height="50" relative="1" as="geometry">
            <mxPoint x="2360" y="1460" as="sourcePoint" />
            <mxPoint x="2247" y="1420" as="targetPoint" />
          </mxGeometry>
        </mxCell>
        <mxCell id="53DS2Vafwqu0RIHosfEk-3" value="where_occured_state" style="ellipse;whiteSpace=wrap;html=1;align=center;fillColor=#99FFFF;" vertex="1" parent="1">
          <mxGeometry x="1745" y="1180" width="129" height="40" as="geometry" />
        </mxCell>
        <mxCell id="53DS2Vafwqu0RIHosfEk-4" value="where_occured_city" style="ellipse;whiteSpace=wrap;html=1;align=center;fillColor=#99FFFF;" vertex="1" parent="1">
          <mxGeometry x="1779" y="1130" width="120" height="40" as="geometry" />
        </mxCell>
        <mxCell id="53DS2Vafwqu0RIHosfEk-6" value="" style="endArrow=none;html=1;rounded=0;entryX=1;entryY=1;entryDx=0;entryDy=0;exitX=0.25;exitY=0;exitDx=0;exitDy=0;" edge="1" parent="1" source="3YMMkIbWI-LEdYJfHBuM-8" target="53DS2Vafwqu0RIHosfEk-3">
          <mxGeometry width="50" height="50" relative="1" as="geometry">
            <mxPoint x="1930" y="1250" as="sourcePoint" />
            <mxPoint x="1900" y="1239" as="targetPoint" />
          </mxGeometry>
        </mxCell>
        <mxCell id="53DS2Vafwqu0RIHosfEk-7" value="" style="endArrow=none;html=1;rounded=0;entryX=1;entryY=1;entryDx=0;entryDy=0;exitX=0.315;exitY=0.01;exitDx=0;exitDy=0;exitPerimeter=0;" edge="1" parent="1" source="3YMMkIbWI-LEdYJfHBuM-8" target="53DS2Vafwqu0RIHosfEk-4">
          <mxGeometry width="50" height="50" relative="1" as="geometry">
            <mxPoint x="1940" y="1270" as="sourcePoint" />
            <mxPoint x="1892" y="1244" as="targetPoint" />
          </mxGeometry>
        </mxCell>
        <mxCell id="53DS2Vafwqu0RIHosfEk-10" value="landmark&amp;nbsp;" style="ellipse;whiteSpace=wrap;html=1;align=center;fillColor=#99FFFF;" vertex="1" parent="1">
          <mxGeometry x="1759" y="1760" width="160" height="40" as="geometry" />
        </mxCell>
        <mxCell id="53DS2Vafwqu0RIHosfEk-11" value="where_occured_state" style="ellipse;whiteSpace=wrap;html=1;align=center;fillColor=#99FFFF;" vertex="1" parent="1">
          <mxGeometry x="1771" y="1810" width="160" height="40" as="geometry" />
        </mxCell>
        <mxCell id="53DS2Vafwqu0RIHosfEk-12" value="" style="endArrow=none;html=1;rounded=0;entryX=0.05;entryY=0.99;entryDx=0;entryDy=0;entryPerimeter=0;exitX=1;exitY=0;exitDx=0;exitDy=0;" edge="1" parent="1" source="53DS2Vafwqu0RIHosfEk-11" target="3YMMkIbWI-LEdYJfHBuM-9">
          <mxGeometry width="50" height="50" relative="1" as="geometry">
            <mxPoint x="1945" y="1870" as="sourcePoint" />
            <mxPoint x="1969" y="1779" as="targetPoint" />
          </mxGeometry>
        </mxCell>
        <mxCell id="53DS2Vafwqu0RIHosfEk-13" value="" style="endArrow=none;html=1;rounded=0;entryX=0.998;entryY=0.44;entryDx=0;entryDy=0;entryPerimeter=0;exitX=-0.003;exitY=0.692;exitDx=0;exitDy=0;exitPerimeter=0;" edge="1" parent="1" source="3YMMkIbWI-LEdYJfHBuM-9" target="53DS2Vafwqu0RIHosfEk-10">
          <mxGeometry width="50" height="50" relative="1" as="geometry">
            <mxPoint x="1940" y="1760" as="sourcePoint" />
            <mxPoint x="1979" y="1789" as="targetPoint" />
          </mxGeometry>
        </mxCell>
      </root>
    </mxGraphModel>
  </diagram>
</mxfile>
